<svg version="1.1" id="Layer_1" xmlns:x="ns_extend;" xmlns:i="ns_ai;" xmlns:graph="ns_graphs;" xmlns="http://www.w3.org/2000/svg" xmlns:xlink="http://www.w3.org/1999/xlink" x="0px" y="0px" viewBox="0 0 73.1 63.9" style="enable-background:new 0 0 73.1 63.9;" xml:space="preserve">
 <style type="text/css">
  .st0{fill:#016D4A;}
	.st1{fill:#009B4D;}
	.st2{fill:#17B5EA;}
	.st3{fill:#7DBB47;}
 </style>
 <metadata>
  <sfw xmlns="ns_sfw;">
   <slices>
   </slices>
   <sliceSourceBounds bottomLeftOrigin="true" height="63.9" width="73.1" x="36.4" y="58.4">
   </sliceSourceBounds>
  </sfw>
 </metadata>
 <g id="Symbols">
  <g id="ventia_logo-copy">
   <path id="Fill-1" class="st0" d="M25.7,46.1c-0.8-0.9-1.6-1.8-2.2-2.8l11.2,19.4c1,1.8,2.7,1.8,3.7,0l11.2-19.4
			c-0.6,1-1.4,2-2.2,2.8c-2.8,2.8-6.6,4.5-10.8,4.5C32.3,50.5,28.5,48.8,25.7,46.1">
   </path>
   <path id="Fill-3" class="st1" d="M25.7,46.1c2.8,2.8,6.6,4.5,10.8,4.5c4.2,0,8-1.7,10.8-4.5c0.8-0.8,1.6-1.8,2.2-2.8l0.4-0.7
			c1.2-2.2,1.8-4.6,1.8-7.3c0-8.4-5.3-17.8-15.5-24.8c-10,7-15,16.4-15,24.8c0,2.6,0.7,5.1,1.8,7.3l0.4,0.7
			C24.2,44.3,24.9,45.2,25.7,46.1">
   </path>
   <path id="Fill-5" class="st2" d="M2.3,0c-2-0.1-2.9,1.4-1.8,3.1l22.7,39.4c-1.2-2.2-1.8-4.6-1.8-7.3c0-8.4,5-17.8,15-24.8
			C28,4.7,16.6,0.6,2.3,0">
   </path>
   <path id="Fill-7" class="st3" d="M49.9,42.5L72.6,3.1c1-1.8,0.2-3.2-1.8-3.1C56,0.6,44.5,4.7,36.3,10.4
			c10.1,7,15.5,16.4,15.5,24.8C51.8,37.9,51.1,40.3,49.9,42.5">
   </path>
  </g>
 </g>
</svg>